<?xml version="1.0" encoding="utf-8"?>
<svg viewBox="0 0 383 780" xmlns="http://www.w3.org/2000/svg">
  <path fill="#1D1D1B" d="M 383 191 L 381.5 191 L 381.5 49.9 C 381.5 22.4 359.1 0 331.6 0 L 51.4 0 C 23.9 0 1.5 22.4 1.5 49.9 L 1.5 101.5 L 0 101.5 L 0 132 L 1.5 132 L 1.5 156.3 L 0 156.3 L 0 216.9 L 1.5 216.9 L 1.5 233.8 L 0 233.8 L 0 294.4 L 1.5 294.4 L 1.5 730.1 C 1.5 757.6 23.9 780 51.4 780 L 331.6 780 C 359.1 780 381.5 757.6 381.5 730.1 L 381.5 290 L 383 290 L 383 191 Z M 160.843 9.614 C 160.843 11.714 156.163 10.433 154.063 10.433 L 163.257 11.428 C 161.157 11.428 163.431 9.727 163.431 7.627 C 163.431 5.527 165.132 9.79 167.232 9.79 L 163.007 7.802 C 165.107 7.902 160.843 7.514 160.843 9.614 Z M 369.5 730.1 C 369.5 751 352.5 768 331.6 768 L 51.4 768 C 30.5 768 13.5 751 13.5 730.1 L 13.5 49.9 C 17.874 31.317 31.311 16.706 51.4 12 L 104.736 10.013 L 54.061 8.408 C 139.13 15.441 250.821 3.208 159.213 6.248 C -21.719 12.252 -87.055 13.896 347.99 15.191 C 358.89 15.223 341.856 17.32 341.856 6.42 L 289.194 8.025 L 318.683 11.006 C 340.356 13.343 367.058 27.951 369.5 49.9 L 369.5 730.1 Z"/>
</svg>